<?xml version="1.0" standalone="no"?>
<!DOCTYPE svg PUBLIC "-//W3C//DTD SVG 20010904//EN"
 "http://www.w3.org/TR/2001/REC-SVG-20010904/DTD/svg10.dtd">
<svg version="1.0" xmlns="http://www.w3.org/2000/svg"
 width="4106.000000pt" height="4106.000000pt" viewBox="0 0 4106.000000 4106.000000"
 preserveAspectRatio="xMidYMid meet">
<metadata>
Created by potrace 1.14, written by Peter Selinger 2001-2017
</metadata>
<g transform="translate(0.000000,4106.000000) scale(0.100000,-0.100000)"
fill="#000000" stroke="none">
<path d="M29967 34843 c-2 -1 -21 -5 -43 -8 -134 -17 -135 -17 -268 -55 -155
-44 -314 -111 -471 -200 -52 -29 -230 -146 -247 -162 -7 -7 -31 -26 -53 -42
-22 -16 -51 -40 -65 -53 -14 -12 -36 -32 -50 -44 -45 -37 -204 -195 -260 -259
-30 -35 -60 -68 -65 -74 -17 -18 -107 -136 -164 -216 -121 -169 -368 -618
-370 -675 0 -3 -8 -19 -16 -35 -8 -16 -15 -32 -15 -35 0 -3 -6 -18 -13 -33
-26 -50 -124 -350 -143 -434 -2 -10 -6 -26 -9 -35 -9 -33 -34 -138 -40 -168
-17 -86 -44 -247 -50 -295 -3 -30 -8 -62 -10 -70 -12 -43 -19 -212 -19 -445 0
-259 8 -395 28 -505 2 -14 10 -59 16 -100 7 -41 19 -104 27 -140 8 -36 16 -72
18 -80 6 -30 26 -105 32 -120 3 -8 8 -26 10 -39 2 -13 11 -37 19 -53 8 -15 11
-28 7 -28 -4 0 -2 -5 5 -12 7 -7 12 -18 12 -25 0 -21 68 -189 118 -293 113
-234 261 -446 430 -616 67 -68 169 -156 198 -172 13 -7 24 -17 24 -22 0 -6 6
-10 14 -10 7 0 19 -7 26 -15 7 -8 24 -21 39 -28 14 -8 62 -35 106 -60 72 -42
259 -123 303 -132 9 -2 44 -11 77 -20 33 -9 74 -18 90 -21 17 -3 40 -7 52 -9
112 -25 473 -25 544 -1 8 3 32 8 54 11 113 16 333 90 483 161 71 35 321 179
332 193 3 3 32 26 65 50 33 24 67 51 77 60 9 9 31 27 50 41 45 34 274 263 328
329 25 30 60 70 77 90 18 20 33 42 33 49 0 6 4 12 9 12 5 0 19 16 31 35 12 20
27 41 34 48 6 6 33 46 60 87 27 41 56 86 66 100 72 106 221 404 295 590 20 52
41 104 45 115 49 122 155 515 175 650 4 22 8 47 10 55 2 8 7 37 11 65 8 60 10
77 18 135 15 110 17 150 21 405 1 149 -1 304 -5 345 -25 218 -34 283 -40 300
-1 3 -2 9 -1 13 2 12 -47 231 -70 312 -19 68 -29 99 -45 140 -4 11 -8 27 -10
35 -2 9 -11 34 -20 55 -10 22 -18 45 -19 50 -4 29 -120 269 -179 369 -207 351
-478 613 -801 774 -139 70 -325 131 -445 148 -19 2 -60 8 -90 13 -50 8 -366
12 -373 4z"/>
<path d="M23707 34794 c-1 -1 -31 -5 -67 -8 -85 -7 -167 -23 -265 -50 -331
-91 -675 -330 -905 -626 -19 -25 -38 -49 -43 -55 -99 -128 -225 -352 -301
-535 -32 -78 -113 -311 -121 -349 -2 -9 -15 -61 -29 -116 -61 -245 -90 -503
-90 -805 0 -210 14 -413 39 -565 3 -22 8 -53 11 -70 7 -44 16 -98 20 -115 2
-8 11 -49 20 -90 31 -146 115 -434 144 -495 5 -11 20 -49 33 -85 74 -200 214
-468 360 -685 176 -263 452 -544 709 -723 48 -34 139 -92 143 -92 2 0 26 -13
52 -28 77 -45 308 -142 373 -157 8 -2 15 -4 15 -5 0 -1 11 -4 24 -6 14 -2 50
-11 80 -19 186 -47 457 -53 656 -14 27 6 61 12 75 15 40 8 132 36 167 50 17 8
36 14 42 14 6 0 19 4 29 10 9 5 55 28 102 50 71 35 177 95 215 122 220 157
443 399 584 633 108 179 247 497 285 650 2 6 8 30 15 55 7 25 15 52 17 60 16
59 64 303 66 337 2 24 5 43 8 43 3 0 5 17 6 38 1 20 4 64 7 97 12 105 20 209
18 230 -1 11 -2 26 -2 33 1 6 1 41 1 77 0 86 0 93 1 108 3 66 -27 386 -47 502
-3 17 -7 39 -9 50 -5 39 -17 101 -36 180 -10 45 -20 92 -23 105 -8 39 -36 144
-43 160 -3 8 -7 17 -8 20 0 3 -12 39 -25 80 -13 41 -24 77 -25 80 -2 6 -9 25
-48 125 -100 261 -255 549 -405 755 -94 129 -94 130 -115 153 -98 114 -134
154 -215 234 -81 80 -248 222 -308 260 -10 7 -48 33 -84 58 -36 25 -70 45 -77
45 -6 0 -13 4 -15 8 -4 10 -240 126 -278 137 -14 4 -38 13 -55 20 -65 27 -171
54 -304 80 -73 14 -363 29 -374 19z"/>
<path d="M19858 30435 c-2 -1 -50 -5 -108 -9 -129 -7 -149 -10 -278 -42 -171
-42 -323 -109 -477 -212 -108 -72 -138 -96 -230 -187 -139 -137 -232 -262
-328 -443 -31 -56 -56 -106 -58 -110 -1 -4 -7 -20 -15 -37 -34 -81 -43 -105
-63 -165 -42 -128 -50 -155 -55 -180 -2 -14 -11 -54 -19 -90 -9 -36 -18 -85
-22 -110 -3 -25 -8 -52 -10 -60 -28 -106 -27 -684 1 -824 2 -12 6 -38 9 -58 4
-30 19 -104 50 -247 44 -200 139 -458 255 -696 62 -126 154 -292 170 -305 4
-3 9 -13 13 -22 13 -37 201 -285 297 -392 120 -134 331 -324 440 -396 12 -8
28 -20 34 -26 28 -26 157 -103 296 -176 151 -79 390 -161 539 -184 18 -3 43
-8 55 -10 112 -22 479 -22 516 1 4 2 22 6 41 9 65 8 234 59 309 92 133 60 237
122 344 203 67 50 227 207 266 260 14 19 30 40 37 46 50 51 196 310 257 455
20 49 75 213 81 243 2 10 7 28 11 40 4 12 8 29 10 37 1 8 9 49 18 90 10 41 19
93 22 115 3 22 8 51 10 65 25 131 25 579 0 745 -2 17 -7 51 -10 76 -3 25 -7
52 -10 60 -3 7 -7 30 -10 49 -14 86 -43 208 -78 325 -12 39 -22 72 -23 75 -4
21 -62 184 -77 220 -11 25 -26 59 -33 75 -87 205 -243 479 -368 650 -125 171
-337 400 -462 500 -27 22 -53 43 -56 48 -24 33 -292 207 -430 280 -54 28 -221
100 -239 102 -3 1 -21 8 -40 17 -46 20 -270 74 -340 83 -30 3 -89 8 -130 11
-41 2 -83 6 -92 8 -9 2 -18 3 -20 1z"/>
<path d="M34056 30413 c-1 -2 -30 -5 -62 -8 -32 -3 -70 -7 -84 -10 -14 -3 -41
-8 -60 -11 -180 -31 -420 -116 -620 -220 -118 -62 -316 -187 -369 -233 -13
-12 -27 -21 -30 -21 -4 0 -23 -15 -42 -32 -19 -18 -55 -49 -79 -69 -108 -88
-306 -297 -417 -439 -72 -94 -153 -209 -153 -219 0 -5 -7 -14 -15 -21 -7 -6
-29 -37 -47 -68 -17 -31 -43 -75 -55 -97 -25 -43 -161 -317 -173 -350 -5 -11
-17 -40 -28 -65 -10 -25 -29 -74 -41 -110 -13 -36 -25 -72 -28 -80 -3 -8 -7
-19 -9 -25 -1 -5 -17 -57 -34 -115 -16 -58 -33 -118 -36 -135 -2 -16 -7 -38
-10 -47 -12 -39 -48 -265 -60 -373 -19 -176 -6 -529 26 -700 6 -33 13 -73 16
-90 3 -16 14 -64 26 -105 11 -41 21 -82 23 -90 2 -8 4 -15 5 -15 1 0 3 -7 5
-15 15 -74 142 -348 211 -457 87 -137 223 -293 344 -395 68 -57 219 -158 237
-158 7 0 13 -4 13 -9 0 -22 308 -140 422 -161 29 -6 64 -12 78 -15 126 -26
466 -25 585 2 11 2 31 6 45 9 84 17 231 58 329 93 107 38 377 167 411 195 8 7
40 27 70 45 30 18 73 46 95 62 22 16 51 37 65 47 14 9 27 19 30 22 3 3 25 21
50 40 132 102 407 379 480 484 8 12 19 26 25 32 5 6 19 23 30 39 11 15 29 39
41 54 133 170 324 526 419 781 7 19 17 44 21 55 4 11 8 22 9 25 0 3 8 28 18
55 9 28 17 52 16 55 0 3 5 19 11 35 40 104 98 394 117 585 15 145 6 629 -12
660 -2 3 -6 24 -9 46 -16 102 -54 256 -93 369 -39 113 -109 271 -132 299 -9
10 -14 19 -11 21 7 4 -132 215 -142 215 -4 0 -8 7 -8 15 0 19 -275 295 -294
295 -8 0 -16 4 -18 9 -5 14 -148 105 -233 148 -129 65 -316 127 -450 147 -22
4 -56 9 -75 12 -39 6 -338 12 -344 7z"/>
<path d="M26738 28515 c-1 -2 -52 -5 -113 -8 -60 -3 -110 -6 -110 -7 0 -1 -20
-3 -44 -5 -66 -6 -102 -13 -224 -40 -234 -53 -453 -140 -646 -257 -34 -21 -65
-38 -67 -38 -11 0 -275 -194 -320 -235 -6 -5 -39 -35 -74 -65 -204 -178 -516
-523 -710 -785 -25 -33 -51 -67 -58 -75 -7 -8 -31 -40 -53 -70 -22 -30 -47
-64 -55 -75 -16 -22 -185 -257 -209 -290 -84 -119 -260 -369 -295 -421 -25
-37 -52 -74 -60 -83 -8 -9 -33 -44 -55 -77 -22 -32 -42 -61 -45 -64 -3 -3 -35
-45 -70 -95 -65 -90 -146 -201 -178 -242 -9 -12 -26 -34 -37 -49 -11 -15 -40
-53 -65 -84 -25 -32 -58 -75 -75 -96 -37 -48 -166 -205 -180 -220 -5 -6 -26
-31 -47 -55 -172 -207 -452 -492 -669 -679 -207 -179 -439 -412 -597 -600 -35
-41 -74 -88 -87 -103 -13 -15 -41 -51 -62 -80 -20 -29 -40 -54 -43 -57 -10 -8
-142 -197 -194 -277 -124 -192 -253 -433 -336 -628 -23 -55 -46 -109 -51 -120
-5 -11 -17 -42 -27 -70 -10 -27 -22 -59 -27 -70 -4 -11 -9 -24 -11 -30 -1 -5
-16 -55 -34 -110 -31 -99 -76 -267 -84 -315 -3 -14 -5 -25 -6 -25 -1 0 -3 -9
-4 -20 -2 -18 -7 -42 -23 -125 -7 -38 -12 -70 -18 -135 -4 -33 -10 -80 -15
-104 -9 -48 -5 -543 4 -606 6 -40 14 -93 22 -150 15 -112 71 -332 115 -455 16
-47 31 -89 33 -95 17 -57 144 -313 204 -410 51 -83 100 -157 129 -195 242
-310 480 -527 762 -694 90 -53 214 -118 231 -121 3 0 21 -8 40 -17 34 -15 69
-30 80 -33 3 0 41 -13 85 -27 99 -33 216 -64 277 -73 15 -2 35 -6 45 -9 25 -7
76 -14 158 -21 39 -4 88 -9 110 -11 46 -5 327 -5 395 0 74 5 203 17 230 21 14
2 48 7 75 10 28 4 57 8 65 10 8 2 38 7 65 10 28 4 69 11 93 16 23 5 59 12 80
15 31 5 178 37 342 74 19 5 123 31 230 59 107 28 202 53 210 55 9 2 74 20 145
39 72 20 150 41 175 48 25 7 50 14 55 15 26 8 92 25 112 29 12 3 33 9 45 14
13 5 25 9 28 9 3 0 25 5 50 12 25 7 52 13 60 15 8 2 35 8 60 15 25 7 52 14 60
15 8 2 72 17 143 34 70 17 142 33 160 36 17 4 52 11 77 16 25 6 58 12 73 14
16 2 40 6 55 9 15 3 43 8 62 11 19 3 60 10 90 15 30 5 84 12 120 15 36 4 70 8
77 10 27 9 240 19 388 19 178 -1 404 -13 519 -28 22 -3 64 -8 91 -11 28 -3 64
-8 80 -11 17 -3 44 -7 60 -10 17 -2 41 -6 55 -9 14 -3 39 -7 55 -9 39 -6 75
-12 166 -30 77 -16 81 -17 164 -36 28 -6 59 -13 70 -15 11 -2 29 -6 40 -8 11
-3 40 -10 65 -16 25 -7 54 -14 65 -16 45 -10 405 -105 510 -135 44 -12 87 -24
95 -25 8 -2 15 -4 15 -5 0 -1 7 -3 15 -5 8 -2 47 -13 85 -24 39 -10 96 -26
128 -35 31 -9 83 -23 115 -32 31 -9 73 -20 92 -24 30 -8 87 -22 140 -36 39
-10 97 -23 120 -28 14 -2 48 -10 75 -16 58 -13 57 -13 190 -39 129 -25 258
-44 405 -59 94 -9 497 -9 570 1 30 4 73 9 94 12 22 2 62 9 90 14 28 6 65 13
82 16 59 9 278 76 369 112 164 65 393 186 530 282 28 19 63 44 80 55 162 113
383 320 502 469 32 40 60 74 63 77 15 14 122 175 166 250 58 100 154 294 154
313 0 7 4 17 8 23 7 7 47 111 57 149 1 6 4 15 5 20 2 6 11 34 21 63 10 28 15
52 12 52 -3 0 0 7 7 15 7 8 10 15 6 15 -3 0 -1 11 4 24 5 13 12 43 15 67 4 24
11 51 15 60 5 9 7 18 5 21 -3 3 -1 27 4 54 10 54 21 133 28 209 7 77 10 405 4
405 -4 0 -6 28 -7 63 -1 77 -16 208 -38 322 -2 11 -6 36 -10 55 -3 19 -8 44
-11 55 -2 11 -11 49 -19 85 -8 36 -29 112 -47 170 -17 58 -32 110 -34 115 -1
6 -6 21 -12 35 -6 14 -20 52 -31 85 -11 33 -33 89 -48 125 -33 82 -45 114 -45
120 0 3 -6 12 -14 20 -7 8 -16 26 -20 40 -10 31 -133 272 -169 328 -14 23 -26
44 -26 46 0 13 -243 383 -259 396 -4 3 -24 30 -46 60 -38 53 -165 212 -220
275 -14 17 -47 55 -73 85 -108 126 -429 438 -602 586 -65 56 -406 398 -470
473 -30 35 -61 70 -69 78 -10 11 -140 171 -259 318 -115 143 -502 701 -502
724 0 5 -7 11 -15 15 -8 3 -15 10 -15 16 0 6 -26 50 -58 98 -32 48 -61 95 -65
105 -3 9 -11 17 -17 17 -5 0 -10 4 -10 10 0 5 -40 73 -90 151 -49 77 -90 142
-90 145 0 3 -8 14 -18 25 -11 10 -25 32 -33 47 -8 15 -18 32 -22 37 -5 6 -27
39 -51 75 -23 36 -59 89 -79 117 -20 29 -37 57 -37 62 0 5 -4 11 -8 13 -5 2
-30 35 -57 73 -51 74 -156 217 -165 225 -3 3 -21 25 -40 50 -137 181 -372 424
-556 576 -97 79 -358 254 -381 254 -3 0 -14 6 -22 13 -13 11 -180 90 -266 127
-20 9 -132 49 -150 54 -5 2 -17 5 -25 8 -8 3 -35 11 -60 18 -25 7 -52 15 -60
18 -8 3 -24 7 -35 9 -11 2 -38 8 -60 14 -22 6 -51 13 -65 15 -14 2 -45 9 -70
14 -25 5 -63 12 -85 14 -22 3 -40 5 -40 6 0 3 -45 10 -115 16 -41 4 -88 8
-105 10 -16 2 -95 7 -175 9 -80 3 -150 7 -157 10 -6 2 -13 2 -15 0z"/>
<path d="M15289 21216 c-2 -2 -26 -6 -54 -10 -70 -9 -150 -23 -150 -26 0 -1
-9 -3 -20 -5 -28 -5 -90 -24 -155 -47 -30 -11 -59 -21 -65 -23 -66 -18 -287
-132 -398 -206 -82 -55 -175 -125 -262 -199 -32 -27 -210 -206 -261 -261 -97
-107 -278 -361 -346 -487 -17 -31 -36 -64 -43 -72 -10 -13 -117 -227 -120
-240 -1 -3 -9 -23 -19 -45 -36 -81 -94 -232 -115 -300 -13 -38 -25 -77 -28
-85 -3 -8 -7 -19 -8 -25 0 -5 -4 -17 -8 -25 -13 -30 -47 -164 -42 -168 3 -3 1
-10 -4 -16 -5 -6 -12 -27 -15 -46 -5 -34 -10 -55 -21 -102 -3 -13 -8 -36 -10
-53 -2 -16 -6 -43 -9 -60 -61 -318 -66 -854 -11 -1109 2 -12 7 -37 9 -56 3
-19 12 -66 21 -105 8 -38 18 -81 21 -95 40 -191 188 -561 278 -693 14 -21 26
-40 26 -43 0 -5 110 -165 120 -174 3 -3 23 -27 45 -55 52 -64 191 -203 241
-241 21 -16 41 -31 44 -34 14 -15 140 -100 148 -100 6 0 12 -4 14 -8 5 -14
177 -96 258 -125 60 -21 122 -40 170 -52 3 -1 25 -5 50 -9 25 -5 54 -10 65
-12 113 -22 361 -22 470 -1 22 5 86 17 125 23 61 11 258 79 348 120 40 18 74
32 76 31 2 -1 12 5 22 13 11 8 37 24 59 35 22 11 42 22 45 25 3 3 27 19 54 34
142 82 445 346 579 504 164 193 342 469 452 697 49 103 113 253 117 275 2 8 6
17 9 20 11 9 124 367 135 425 2 11 17 83 33 160 17 76 32 157 35 180 7 57 17
135 22 170 17 110 23 459 10 610 -11 138 -21 227 -29 270 -4 17 -9 48 -13 70
-3 22 -7 49 -9 60 -7 40 -47 202 -67 265 -136 441 -354 795 -648 1053 -100 87
-293 207 -415 257 -11 5 -41 18 -68 29 -47 20 -213 63 -292 76 -43 7 -390 16
-396 11z"/>
<path d="M9418 21165 c-2 -2 -24 -6 -48 -9 -117 -15 -281 -63 -402 -120 -31
-14 -62 -26 -67 -26 -6 0 -11 -4 -11 -10 0 -5 -6 -10 -14 -10 -8 0 -21 -6 -28
-12 -8 -7 -25 -19 -38 -27 -14 -8 -34 -19 -44 -25 -24 -13 -30 -18 -129 -96
-112 -88 -260 -241 -335 -348 -127 -181 -199 -311 -272 -489 -29 -70 -56 -137
-61 -148 -10 -24 -68 -220 -73 -249 -2 -12 -9 -41 -16 -66 -14 -50 -17 -68
-25 -120 -3 -20 -8 -47 -11 -60 -2 -14 -7 -41 -10 -60 -5 -36 -7 -47 -20 -180
-5 -41 -8 -172 -8 -290 0 -244 7 -361 30 -505 2 -16 7 -46 9 -65 3 -19 7 -44
10 -56 2 -12 7 -39 11 -60 3 -21 14 -73 24 -114 10 -41 21 -86 24 -100 11 -54
37 -146 45 -160 5 -9 12 -31 16 -50 4 -18 25 -81 47 -139 42 -111 51 -135 89
-216 12 -27 23 -52 24 -55 6 -22 92 -184 141 -266 11 -18 34 -57 52 -87 17
-30 39 -60 47 -67 8 -7 15 -19 15 -26 0 -8 4 -14 9 -14 5 0 14 -13 21 -30 7
-16 16 -30 20 -30 5 0 18 -15 29 -33 11 -19 31 -45 43 -59 13 -14 46 -52 73
-84 56 -65 168 -179 234 -238 67 -60 190 -156 200 -156 5 0 14 -6 20 -14 18
-21 191 -122 284 -165 171 -80 333 -128 512 -150 76 -10 338 -7 395 4 40 8
114 23 150 31 115 25 326 118 435 190 32 22 65 44 74 49 109 69 251 207 393
383 40 50 144 212 180 281 22 42 43 80 48 86 5 5 9 13 10 17 1 7 25 63 61 145
11 23 19 44 19 47 0 2 5 17 12 33 6 15 12 31 13 36 2 4 3 8 5 10 1 1 3 9 5 17
3 8 20 66 39 128 19 61 32 112 30 112 -3 0 0 8 5 18 5 9 12 33 15 52 7 45 14
77 20 98 3 9 7 37 10 62 3 25 8 54 10 66 6 29 17 120 22 169 3 39 16 320 15
340 -5 187 -16 321 -36 470 -14 108 -45 260 -76 380 -17 66 -34 136 -39 156
-40 159 -187 504 -292 688 -26 46 -48 88 -48 92 0 5 -4 9 -10 9 -5 0 -10 5
-10 11 0 7 -16 34 -35 60 -19 27 -35 53 -35 58 0 5 -3 11 -7 13 -5 2 -20 21
-36 44 -15 22 -35 49 -45 60 -9 10 -37 46 -62 78 -63 84 -269 291 -366 368
-135 109 -325 229 -408 259 -20 7 -36 16 -36 20 0 4 -12 10 -27 15 -36 10 -33
9 -68 23 -53 23 -183 62 -247 76 -16 3 -31 6 -35 7 -74 17 -178 26 -305 26
-86 0 -158 -2 -160 -3z"/>
<path d="M5798 17125 c-2 -2 -30 -6 -64 -9 -33 -3 -67 -8 -75 -10 -8 -3 -25
-7 -39 -10 -178 -30 -385 -125 -570 -260 -121 -88 -368 -368 -387 -438 -3 -10
-9 -18 -14 -18 -5 0 -9 -4 -9 -8 0 -5 -20 -45 -44 -90 -24 -45 -42 -82 -40
-82 3 0 -3 -11 -12 -25 -9 -14 -13 -25 -9 -25 4 0 3 -6 -2 -12 -35 -45 -115
-320 -139 -478 -3 -19 -7 -46 -10 -60 -26 -142 -25 -604 2 -743 2 -12 6 -43 9
-68 3 -25 10 -60 15 -78 5 -17 9 -34 9 -36 3 -72 92 -374 160 -544 91 -227
244 -502 374 -673 110 -145 308 -361 397 -433 14 -11 50 -41 80 -66 95 -80
342 -241 361 -236 4 1 15 -5 25 -14 30 -26 284 -130 351 -144 10 -2 56 -13
103 -24 116 -27 150 -32 259 -36 51 -2 95 -6 98 -9 3 -3 16 -1 30 5 17 6 22 6
17 -3 -4 -6 -3 -8 3 -5 5 3 38 9 74 12 157 14 339 62 463 121 28 13 53 24 57
24 5 0 25 12 46 26 21 14 47 30 58 35 22 10 57 31 65 39 3 3 31 25 63 49 69
51 230 210 254 252 10 16 20 29 24 29 4 0 16 16 28 35 11 20 25 41 31 48 33
39 170 289 170 310 0 3 8 22 17 43 9 22 17 41 18 44 1 3 17 57 37 120 33 106
53 187 65 265 7 39 11 60 13 60 1 0 3 14 4 30 2 17 7 71 12 120 10 112 10 375
0 475 -4 41 -9 89 -11 105 -6 56 -17 120 -36 216 -18 89 -22 106 -34 159 -2
12 -9 35 -14 53 -6 18 -20 64 -32 102 -63 205 -159 424 -270 617 -22 36 -39
69 -39 73 0 3 -9 15 -20 27 -11 12 -20 28 -20 35 0 7 -4 13 -8 13 -5 0 -13 10
-19 23 -43 91 -302 394 -445 519 -33 29 -70 62 -83 73 -52 46 -76 65 -84 65
-5 0 -14 6 -20 13 -17 21 -176 127 -189 127 -7 0 -12 4 -12 8 0 4 -15 15 -32
24 -18 8 -70 34 -114 56 -86 43 -217 98 -256 107 -13 2 -63 16 -113 30 -49 14
-108 27 -130 30 -22 3 -56 8 -75 11 -40 6 -317 14 -322 9z"/>
<path d="M19128 17114 c-2 -1 -43 -5 -91 -8 -49 -3 -92 -8 -95 -10 -4 -2 -26
-7 -48 -10 -54 -8 -82 -14 -104 -21 -10 -3 -27 -8 -38 -10 -25 -4 -230 -72
-257 -84 -112 -51 -230 -111 -273 -138 -29 -18 -55 -33 -58 -33 -3 0 -39 -24
-81 -52 -41 -29 -85 -60 -97 -68 -170 -117 -423 -375 -614 -625 -25 -32 -142
-215 -142 -221 0 -4 -6 -15 -14 -23 -7 -9 -29 -45 -47 -81 -19 -36 -37 -66
-41 -68 -5 -2 -8 -12 -8 -23 0 -10 -4 -19 -10 -19 -5 0 -10 -6 -10 -14 0 -7
-10 -33 -23 -57 -41 -78 -168 -413 -176 -462 -2 -19 -13 -63 -18 -77 -8 -19
-12 -39 -18 -70 -2 -14 -4 -26 -6 -27 -2 -4 -4 -11 -14 -63 -5 -25 -9 -47 -10
-50 -1 -3 -5 -32 -10 -65 -4 -33 -9 -67 -10 -75 -26 -168 -24 -532 5 -700 5
-30 11 -71 14 -90 3 -19 12 -59 20 -87 8 -29 12 -53 9 -53 -3 0 -1 -6 5 -12 6
-7 11 -17 11 -23 1 -5 7 -28 13 -50 6 -22 13 -46 14 -53 1 -7 12 -33 23 -58
12 -24 21 -49 21 -55 0 -6 6 -23 14 -37 8 -15 30 -60 50 -100 96 -196 271
-412 431 -532 33 -25 69 -53 79 -62 11 -10 24 -18 30 -18 5 0 17 -6 25 -14 44
-38 307 -152 394 -170 12 -3 33 -7 47 -10 72 -16 151 -28 198 -31 29 -1 54 -4
57 -6 6 -6 279 4 295 11 3 1 8 2 12 1 17 -2 212 40 289 63 88 26 208 71 289
109 25 11 48 20 53 19 4 -1 7 1 7 6 0 4 15 14 32 21 76 34 251 145 363 231
346 264 659 654 853 1060 63 133 94 203 96 217 1 7 5 16 9 19 4 4 7 16 7 26 0
10 4 18 8 18 5 0 9 6 9 13 0 6 17 61 37 121 20 60 39 127 42 148 4 21 10 38
13 38 4 0 8 8 9 18 1 17 4 31 16 92 4 19 9 49 11 65 2 17 4 31 6 33 3 5 11 52
26 180 13 98 6 627 -7 627 -2 0 -9 36 -14 75 -7 54 -34 166 -63 260 -15 47
-27 87 -28 90 -1 3 -8 21 -17 41 -9 20 -19 46 -23 58 -7 23 -72 152 -90 181
-5 8 -10 17 -10 20 -1 6 -77 123 -85 130 -3 3 -17 21 -30 40 -46 67 -161 186
-235 245 -27 22 -52 43 -55 46 -13 15 -133 90 -195 122 -116 60 -248 112 -310
123 -11 1 -29 5 -40 8 -52 12 -111 24 -125 25 -8 1 -31 3 -50 6 -40 6 -248 13
-252 9z"/>
<path d="M12108 15344 c-2 -2 -24 -6 -48 -9 -91 -11 -126 -17 -186 -30 -34 -8
-73 -16 -87 -19 -102 -18 -514 -189 -525 -218 -2 -4 -10 -8 -17 -8 -8 0 -20
-6 -27 -12 -7 -7 -29 -22 -48 -32 -19 -11 -37 -22 -40 -25 -3 -3 -34 -26 -70
-51 -36 -24 -70 -49 -76 -55 -6 -5 -29 -23 -50 -40 -149 -116 -433 -397 -537
-532 -12 -15 -27 -32 -33 -38 -6 -5 -47 -55 -90 -110 -43 -55 -81 -102 -84
-105 -7 -6 -226 -301 -260 -350 -14 -19 -30 -42 -37 -50 -36 -45 -243 -342
-243 -350 0 -4 -4 -10 -8 -12 -4 -1 -28 -32 -52 -68 -25 -36 -53 -74 -62 -84
-10 -11 -18 -23 -18 -27 0 -4 -6 -14 -12 -21 -7 -7 -26 -33 -43 -58 -16 -25
-32 -47 -36 -50 -3 -3 -38 -52 -79 -110 -41 -58 -80 -112 -87 -120 -8 -8 -45
-58 -84 -110 -38 -52 -75 -102 -82 -110 -7 -8 -44 -55 -82 -105 -38 -49 -72
-92 -75 -95 -7 -7 -56 -65 -105 -125 -174 -214 -488 -531 -720 -727 -53 -45
-370 -362 -420 -419 -136 -159 -173 -204 -255 -314 -117 -158 -228 -328 -300
-457 -27 -50 -168 -332 -183 -368 -73 -172 -140 -360 -173 -485 -17 -64 -53
-210 -52 -214 0 -4 -1 -8 -2 -11 -4 -12 -20 -102 -25 -145 -2 -16 -6 -43 -9
-60 -6 -33 -15 -114 -21 -185 -5 -68 -5 -367 0 -430 6 -68 13 -128 21 -177 4
-21 7 -45 8 -53 1 -8 5 -31 9 -50 4 -19 9 -46 11 -60 11 -61 31 -136 58 -215
10 -33 21 -67 23 -75 3 -16 30 -87 50 -135 40 -95 70 -161 75 -165 3 -3 11
-18 18 -35 23 -52 118 -206 179 -290 177 -245 409 -469 648 -626 86 -57 265
-155 273 -150 1 1 23 -9 50 -23 42 -21 244 -91 297 -102 17 -4 53 -12 130 -28
11 -2 45 -7 75 -11 30 -4 64 -9 75 -11 101 -20 486 -20 640 0 17 2 59 7 95 11
36 3 72 8 81 11 9 2 34 7 55 9 22 2 50 7 64 10 14 3 41 8 60 11 19 3 67 12
105 21 39 8 84 17 100 20 17 2 57 11 90 20 33 8 68 17 78 19 27 6 49 12 97 23
25 7 56 14 69 17 14 3 28 7 31 9 4 2 20 7 36 9 16 3 79 20 139 36 61 17 121
33 134 36 14 3 28 7 33 10 4 3 17 7 28 10 41 9 64 15 130 33 25 8 50 14 55 16
36 8 72 17 85 22 8 3 20 7 25 8 6 2 91 23 190 48 99 25 191 48 205 51 14 2 75
16 137 30 61 14 128 28 148 31 21 2 45 7 54 9 25 8 72 16 116 21 22 3 49 7 60
9 11 2 49 7 85 11 36 4 76 9 90 11 101 16 517 23 625 9 22 -2 80 -7 130 -10
49 -4 92 -8 96 -10 3 -2 36 -7 73 -10 37 -4 77 -9 89 -11 33 -8 56 -11 132
-23 99 -16 120 -19 120 -21 0 -2 12 -4 75 -15 35 -6 112 -23 230 -51 36 -9 72
-17 80 -19 8 -2 51 -13 95 -24 88 -24 92 -25 150 -39 22 -6 72 -19 110 -30 39
-11 102 -27 140 -37 39 -10 79 -21 90 -26 11 -4 65 -20 120 -34 55 -14 107
-29 115 -32 19 -8 27 -10 69 -17 19 -4 42 -11 52 -17 11 -5 19 -8 19 -5 0 3
15 0 33 -5 49 -15 263 -68 300 -74 17 -3 47 -10 64 -16 18 -6 37 -8 43 -4 5 3
10 2 10 -2 0 -5 8 -9 18 -10 9 0 44 -6 77 -12 33 -6 76 -14 95 -17 19 -3 60
-9 90 -14 30 -5 87 -12 125 -17 91 -9 524 -10 595 -1 110 15 136 19 205 34 39
8 81 17 95 20 30 6 114 32 155 47 17 6 35 12 40 13 42 7 337 141 343 157 2 4
8 7 14 7 28 0 296 179 418 279 59 48 263 250 319 316 19 22 57 72 85 110 28
39 54 72 58 73 5 2 8 7 8 12 0 5 23 45 51 91 71 114 179 334 176 359 0 3 6 16
13 30 8 14 15 27 15 30 9 38 20 67 28 78 5 6 7 12 3 12 -3 0 -1 12 5 28 6 15
13 38 15 52 3 14 11 48 19 75 13 46 23 90 30 140 2 11 6 34 9 50 3 17 8 50 10
75 3 25 8 65 12 90 14 94 7 470 -10 570 -2 14 -7 48 -10 75 -9 81 -48 269 -81
390 -21 80 -104 323 -121 357 -8 15 -15 31 -16 35 -1 9 -21 58 -45 113 -29 66
-140 285 -172 338 -17 29 -31 55 -31 58 0 3 -8 17 -18 32 -11 15 -52 79 -93
142 -86 134 -278 393 -344 465 -11 12 -42 48 -70 81 -56 67 -430 442 -490 492
-148 123 -419 391 -563 557 -23 28 -51 59 -61 70 -10 11 -58 70 -107 131 -49
61 -100 124 -112 140 -13 16 -36 47 -50 69 -15 22 -34 47 -42 56 -8 9 -23 27
-32 40 -9 13 -46 66 -82 117 -36 51 -66 97 -66 102 0 4 -4 10 -9 12 -9 3 -301
443 -301 453 0 3 -5 11 -11 18 -5 7 -27 39 -48 72 -79 124 -336 520 -344 530
-7 9 -88 122 -119 168 -27 38 -104 143 -120 162 -9 11 -49 61 -89 110 -105
129 -121 147 -255 280 -132 131 -128 127 -261 231 -182 143 -420 274 -633 349
-41 15 -82 30 -90 33 -8 3 -18 6 -22 7 -5 2 -9 3 -10 5 -2 1 -10 3 -18 5 -8 2
-24 6 -35 9 -196 51 -234 59 -320 71 -16 2 -44 6 -61 9 -17 3 -57 9 -90 12
-32 3 -72 8 -89 11 -37 5 -512 12 -517 7z"/>
<path d="M39738 1853 c-2 -10 -1 -29 3 -43 5 -20 6 -16 7 18 0 45 -3 52 -10
25z"/>
<path d="M39814 1829 c-1 -21 2 -39 6 -39 7 0 7 66 0 74 -3 2 -6 -13 -6 -35z"/>
<path d="M39896 1854 c-3 -9 -3 -20 0 -25 3 -6 1 -16 -5 -23 -8 -9 -7 -13 2
-13 8 0 13 15 13 39 1 42 -1 46 -10 22z"/>
<path d="M39945 1834 c0 -18 3 -35 6 -39 3 -3 5 7 4 22 -1 16 2 33 6 39 5 6 3
11 -4 11 -8 0 -13 -12 -12 -33z"/>
<path d="M39978 1847 c-3 -19 -2 -25 4 -19 6 6 8 18 6 28 -3 14 -5 12 -10 -9z"/>
<path d="M40045 1862 c3 -3 0 -11 -6 -19 -9 -9 -8 -13 0 -13 6 0 11 6 11 13 0
8 3 7 9 -3 6 -8 7 -18 4 -24 -3 -5 -1 -6 5 -2 8 5 9 13 2 25 -5 10 -7 20 -5
23 3 3 -2 5 -10 5 -8 0 -13 -3 -10 -5z"/>
<path d="M40116 1853 c-6 -14 -5 -15 5 -6 7 7 10 15 7 18 -3 3 -9 -2 -12 -12z"/>
<path d="M40148 1852 c5 -9 7 -24 4 -32 -2 -8 -2 -12 2 -9 14 13 14 48 0 53
-11 4 -12 1 -6 -12z"/>
<path d="M40219 1863 c-5 -34 -6 -73 -1 -69 6 7 12 76 6 76 -2 0 -4 -3 -5 -7z"/>
<path d="M40273 1853 c0 -10 4 -10 16 -1 9 7 18 13 20 15 2 1 -5 1 -16 0 -11
0 -20 -7 -20 -14z"/>
<path d="M40359 1863 c0 -5 -2 -18 -5 -30 -2 -13 0 -23 4 -23 4 0 8 14 8 30 1
17 0 30 -2 30 -2 0 -4 -3 -5 -7z"/>
<path d="M40441 1853 c-11 -12 -10 -14 5 -11 13 2 19 -3 19 -16 0 -11 7 -21
15 -23 12 -4 13 -3 1 5 -7 5 -11 14 -8 18 3 5 0 16 -7 25 -10 14 -13 14 -25 2z"/>
<path d="M40519 1863 c0 -5 -2 -17 -4 -27 -2 -11 0 -26 4 -34 5 -9 8 2 8 27 0
23 -2 41 -4 41 -1 0 -3 -3 -4 -7z"/>
<path d="M40600 1865 c-6 -26 -5 -67 2 -71 5 -3 8 -2 7 3 -4 22 2 34 14 27 6
-4 9 -4 5 1 -4 4 -2 15 5 24 10 14 10 14 -5 3 -14 -11 -17 -10 -21 5 -3 10 -6
14 -7 8z"/>
<path d="M40800 1850 c-6 -11 -7 -20 -2 -20 6 0 12 9 15 20 3 11 3 20 1 20 -2
0 -8 -9 -14 -20z"/>
<path d="M40880 1856 c0 -7 8 -13 18 -12 9 0 16 -5 14 -12 -1 -8 2 -11 8 -7
13 8 5 22 -21 35 -15 8 -19 7 -19 -4z"/>
<path d="M40949 1868 c-5 -11 -4 -70 1 -73 4 -2 6 14 6 36 0 33 -3 47 -7 37z"/>
<path d="M40315 1849 c-4 -6 -4 -13 -1 -16 3 -3 1 -14 -5 -24 -7 -14 -6 -17 4
-14 7 3 13 19 12 35 0 33 -1 35 -10 19z"/>
<path d="M40842 1846 c4 -5 3 -19 -3 -33 -5 -13 -5 -22 0 -19 15 9 20 46 8 53
-7 3 -9 3 -5 -1z"/>
<path d="M40285 1832 c-12 -8 -13 -28 -2 -36 4 -3 5 -3 2 0 -2 4 0 15 6 25 11
21 9 23 -6 11z"/>
<path d="M40113 1810 c1 -11 5 -20 10 -20 5 0 7 6 4 14 -3 8 -1 17 6 20 7 2 5
5 -5 5 -11 1 -16 -6 -15 -19z"/>
<path d="M40429 1828 c0 -2 -2 -11 -4 -21 -3 -15 -1 -16 11 -6 16 13 19 29 4
29 -5 0 -10 -1 -11 -2z"/>
<path d="M40023 1803 c0 -9 4 -10 14 -2 7 6 13 12 13 14 0 1 -6 2 -13 2 -8 0
-14 -6 -14 -14z"/>
<path d="M40718 1813 c6 -2 10 -8 8 -12 -3 -4 1 -8 9 -8 11 0 12 4 4 14 -6 7
-17 13 -23 12 -7 0 -6 -2 2 -6z"/>
<path d="M40790 1816 c0 -2 7 -9 15 -16 13 -11 14 -10 9 4 -5 14 -24 23 -24
12z"/>
<path d="M40625 1800 c3 -5 11 -10 16 -10 6 0 7 5 4 10 -3 6 -11 10 -16 10 -6
0 -7 -4 -4 -10z"/>
</g>
</svg>
